<?xml version="1.0" standalone="no"?>
<!DOCTYPE svg PUBLIC "-//W3C//DTD SVG 20010904//EN"
 "http://www.w3.org/TR/2001/REC-SVG-20010904/DTD/svg10.dtd">
<svg version="1.0" xmlns="http://www.w3.org/2000/svg"
 width="187.000000pt" height="264.000000pt" viewBox="0 0 187.000000 264.000000"
 preserveAspectRatio="xMidYMid meet">

<g transform="translate(0.000000,264.000000) scale(0.100000,-0.100000)"
fill="#000000" stroke="none">
<path d="M0 1320 l0 -1320 935 0 935 0 0 1320 0 1320 -935 0 -935 0 0 -1320z
m1530 964 c0 -3 -55 -83 -122 -177 l-122 -172 -12 -81 c-7 -45 -57 -227 -113
-405 -230 -744 -224 -718 -232 -874 -3 -77 -7 -141 -8 -142 0 -2 -73 -3 -161
-3 l-160 0 6 43 c35 243 120 488 268 772 86 165 342 601 428 730 l61 90 -109
6 c-161 9 -714 0 -738 -13 -12 -6 -42 -31 -68 -56 -26 -25 -49 -44 -52 -41 -4
4 41 292 49 317 3 9 121 12 545 12 297 0 540 -3 540 -6z"/>
</g>
</svg>
