<svg version="1.1" id="Layer_1" xmlns="http://www.w3.org/2000/svg" xmlns:xlink="http://www.w3.org/1999/xlink" x="0px" y="0px"
	 width="100%" viewBox="0 0 500 138" enable-background="new 0 0 500 138" xml:space="preserve">
<path fill="#010101" opacity="1.000000" stroke="none" 
	d="
M355.000000,139.000000 
	C236.666687,139.000000 118.833374,139.000000 1.000047,139.000000 
	C1.000032,93.000031 1.000032,47.000057 1.000016,1.000066 
	C167.666611,1.000044 334.333221,1.000044 500.999878,1.000022 
	C500.999908,46.999935 500.999908,92.999870 500.999939,138.999908 
	C452.500000,139.000000 404.000000,139.000000 355.000000,139.000000 
M208.948227,59.069405 
	C208.948227,59.069405 209.017197,59.057808 208.313019,59.073284 
	C207.805908,59.676064 207.298798,60.278839 206.189194,61.151272 
	C205.041000,62.345509 203.724121,63.419437 202.772369,64.753784 
	C197.207062,72.556320 195.966736,81.020134 200.372513,89.606277 
	C204.330612,97.319946 211.339020,100.424995 219.840164,99.958138 
	C227.421707,99.541771 235.569107,93.644104 236.569336,88.160522 
	C217.796143,97.044449 205.106216,90.756721 206.909393,72.995399 
	C215.834122,72.995117 224.760696,73.085190 233.681732,72.903534 
	C235.128891,72.874062 236.551514,71.639687 237.975266,70.185966 
	C236.028198,60.292755 229.907806,55.738144 218.232025,55.919762 
	C215.466568,56.690304 212.701111,57.460846 209.428787,58.150169 
	C209.257568,58.436039 209.086365,58.721905 208.948227,59.069405 
M350.233093,55.919685 
	C347.475830,56.692039 344.718536,57.464390 341.466827,58.124676 
	C341.305725,58.405788 341.144623,58.686901 340.292725,59.064636 
	C339.792480,59.670223 339.292206,60.275814 338.189423,61.151100 
	C337.041199,62.345333 335.724335,63.419258 334.772552,64.753609 
	C329.207031,72.556061 327.966736,81.019943 332.372406,89.606102 
	C336.330414,97.319832 343.338837,100.424988 351.840027,99.958153 
	C359.421539,99.541809 367.568787,93.644363 368.569397,88.160606 
	C349.795410,97.044006 337.106201,90.756607 338.909424,72.995399 
	C347.834137,72.995117 356.760712,73.085190 365.681732,72.903519 
	C367.128906,72.874054 368.551514,71.639671 369.975281,70.185966 
	C368.028168,60.292702 361.907837,55.738129 350.233093,55.919685 
M274.732727,71.209908 
	C277.602112,71.209908 280.471527,71.209908 283.538452,71.209908 
	C282.743988,63.473606 278.977081,58.792671 272.335632,56.991501 
	C268.775421,56.025982 264.873138,56.321751 260.399445,56.107250 
	C258.263092,57.294167 256.126740,58.481083 253.325745,59.897713 
	C244.989746,66.111526 242.082108,74.454636 243.957275,84.496201 
	C245.571823,93.142159 253.286362,99.509995 262.384979,100.017105 
	C270.931274,100.493431 280.196442,95.019318 282.689331,87.613640 
	C280.855164,88.775322 279.412262,89.800682 277.870758,90.646248 
	C271.181915,94.315323 262.600647,93.583237 257.249695,88.944420 
	C252.207397,84.573174 249.996445,77.019272 252.921906,71.264107 
	C259.948792,71.174004 266.975708,71.083900 274.732727,71.209908 
M107.883842,50.355530 
	C110.286400,46.994854 112.688957,43.634174 115.673332,39.459656 
	C103.195335,39.459656 92.178566,39.459656 80.796707,39.459656 
	C80.233887,42.948704 79.691681,46.309937 79.056618,50.246792 
	C81.007256,48.654457 82.430267,46.489395 83.938438,46.428360 
	C92.269508,46.091194 100.621346,46.267033 110.314285,46.267033 
	C108.758751,48.747238 108.030151,49.908947 106.674690,51.383877 
	C98.300278,66.537262 87.803238,80.795792 85.831039,98.839676 
	C89.866188,98.839676 93.114700,98.839676 96.085686,98.839676 
	C96.277687,95.383690 95.887886,92.092316 96.726112,89.150909 
	C99.845200,78.205795 103.406120,67.387268 106.700432,56.490765 
	C107.234642,54.723763 107.258263,52.802399 107.883842,50.355530 
M183.891663,97.004845 
	C197.122665,87.998215 196.127884,74.540939 181.688858,67.597816 
	C179.299347,66.448807 176.784485,65.563416 174.366577,64.469872 
	C170.892883,62.898819 167.289352,61.524387 164.038162,59.571663 
	C158.197617,56.063717 157.084900,50.275906 160.778320,44.628300 
	C161.242386,43.918720 161.630585,43.159519 162.053925,42.423306 
	C159.955826,42.353367 158.512070,42.984501 157.368652,43.965652 
	C149.214111,50.962925 150.363708,63.464935 159.886353,68.629013 
	C165.995514,71.941978 172.659393,74.233147 178.762985,77.554962 
	C186.966217,82.019493 187.998413,89.030739 181.206406,96.097374 
	C178.225983,97.006996 175.245560,97.916611 172.064743,98.887383 
	C175.808533,100.602180 177.936340,100.244263 183.891663,97.004845 
M378.927704,99.152061 
	C382.714478,99.152061 386.501221,99.152061 389.783844,99.152061 
	C384.288757,84.919586 389.304565,70.139236 386.728546,55.474289 
	C382.496307,57.363590 378.690216,59.062641 374.628113,60.875988 
	C379.697601,66.183502 379.925690,91.014679 375.516144,99.005486 
	C376.392456,99.056046 377.217834,99.103668 378.927704,99.152061 
M406.159760,98.023941 
	C411.037903,98.512970 415.916046,99.001999 420.298309,99.441322 
	C419.365234,95.506012 418.210907,92.607857 418.074585,89.662582 
	C417.767090,83.020210 418.082153,76.351753 417.927338,69.698959 
	C417.677704,58.970951 410.482971,53.645279 400.125488,56.432880 
	C398.150818,56.964336 396.258667,57.802250 393.389038,58.837734 
	C395.924622,59.379410 397.475922,59.928200 399.051453,60.009804 
	C405.902161,60.364628 408.707458,62.776749 408.952423,69.609772 
	C409.220520,77.087593 409.154907,84.587570 408.900299,92.066505 
	C408.839691,93.846375 407.448364,95.580948 406.159760,98.023941 
M302.431946,69.928116 
	C301.257782,65.511864 296.994598,61.775509 299.718719,56.710587 
	C294.926270,56.710587 290.372345,56.710587 286.240051,56.710587 
	C288.788422,61.866428 291.449829,66.781921 293.686707,71.883560 
	C297.290253,80.102104 300.568298,88.462791 304.080597,96.722275 
	C305.296692,99.582100 308.538269,100.321571 309.665833,97.976639 
	C311.256897,94.667847 312.240875,91.067139 312.874634,89.295662 
	C311.055939,87.863297 309.966431,87.432793 309.626617,86.668823 
	C307.262390,81.353561 305.053711,75.969124 302.431946,69.928116 
M153.052917,95.184029 
	C158.875580,98.086639 164.822067,100.358780 171.608780,99.015793 
	C161.823532,96.503387 155.851501,89.872437 151.949997,80.837196 
	C151.461014,81.085808 150.972046,81.334419 150.483063,81.583031 
	C151.106506,85.981735 151.729935,90.380440 153.052917,95.184029 
M187.584671,41.092491 
	C181.256287,40.167080 174.927902,39.241673 168.599533,38.316261 
	C168.296539,39.123276 167.993561,39.930286 167.690567,40.737297 
	C178.476120,39.682499 185.519485,44.701260 189.933151,53.988045 
	C190.537323,53.581787 191.141479,53.175529 191.745651,52.769272 
	C190.596558,48.966026 189.447449,45.162781 187.584671,41.092491 
M323.388184,63.044640 
	C324.907532,61.012131 326.426880,58.979622 328.180481,56.633736 
	C324.889618,56.633736 322.010681,56.633736 320.179352,56.633736 
	C320.179352,60.678455 320.179352,64.210770 320.179352,67.743088 
	C320.485748,67.801575 320.792114,67.860054 321.098511,67.918541 
	C321.765747,66.524780 322.432983,65.131020 323.388184,63.044640 
z"/>
<path fill="#F3F3F3" opacity="1.000000" stroke="none" 
	d="
M181.972946,95.954361 
	C187.998413,89.030739 186.966217,82.019493 178.762985,77.554962 
	C172.659393,74.233147 165.995514,71.941978 159.886353,68.629013 
	C150.363708,63.464935 149.214111,50.962925 157.368652,43.965652 
	C158.512070,42.984501 159.955826,42.353367 162.053925,42.423306 
	C161.630585,43.159519 161.242386,43.918720 160.778320,44.628300 
	C157.084900,50.275906 158.197617,56.063717 164.038162,59.571663 
	C167.289352,61.524387 170.892883,62.898819 174.366577,64.469872 
	C176.784485,65.563416 179.299347,66.448807 181.688858,67.597816 
	C196.127884,74.540939 197.122665,87.998215 183.311615,96.924911 
	C182.478683,96.548096 182.225815,96.251228 181.972946,95.954361 
z"/>
<path fill="#F3F3F3" opacity="1.000000" stroke="none" 
	d="
M252.009109,71.039436 
	C249.996445,77.019272 252.207397,84.573174 257.249695,88.944420 
	C262.600647,93.583237 271.181915,94.315323 277.870758,90.646248 
	C279.412262,89.800682 280.855164,88.775322 282.689331,87.613640 
	C280.196442,95.019318 270.931274,100.493431 262.384979,100.017105 
	C253.286362,99.509995 245.571823,93.142159 243.957275,84.496201 
	C242.082108,74.454636 244.989746,66.111526 253.974487,59.977898 
	C253.745453,63.379780 252.867676,66.701477 251.982895,70.277466 
	C251.986954,70.700989 251.998032,70.870209 252.009109,71.039436 
z"/>
<path fill="#F2F2F2" opacity="1.000000" stroke="none" 
	d="
M340.983521,58.968006 
	C341.144623,58.686901 341.305725,58.405788 341.876373,58.450893 
	C342.674835,58.888882 343.063721,59.000656 343.243500,59.403843 
	C339.081635,63.267223 337.713562,67.823563 337.967987,72.997849 
	C337.106201,90.756607 349.795410,97.044006 368.569397,88.160606 
	C367.568787,93.644363 359.421539,99.541809 351.840027,99.958153 
	C343.338837,100.424988 336.330414,97.319832 332.372406,89.606102 
	C327.966736,81.019943 329.207031,72.556061 334.772552,64.753609 
	C335.724335,63.419258 337.041199,62.345333 338.804443,60.972237 
	C339.940826,60.184917 340.462158,59.576458 340.983521,58.968006 
z"/>
<path fill="#F2F2F2" opacity="1.000000" stroke="none" 
	d="
M205.967972,72.997849 
	C205.106216,90.756721 217.796143,97.044449 236.569336,88.160522 
	C235.569107,93.644104 227.421707,99.541771 219.840164,99.958138 
	C211.339020,100.424995 204.330612,97.319946 200.372513,89.606277 
	C195.966736,81.020134 197.207062,72.556320 202.772369,64.753784 
	C203.724121,63.419437 205.041000,62.345509 206.878082,60.902573 
	C208.074661,60.064461 208.582336,59.475048 209.581116,59.135117 
	C208.704132,63.922348 207.336060,68.460098 205.967972,72.997849 
z"/>
<path fill="#F3F3F3" opacity="1.000000" stroke="none" 
	d="
M378.485474,99.151672 
	C377.217834,99.103668 376.392456,99.056046 375.516144,99.005486 
	C379.925690,91.014679 379.697601,66.183502 374.628113,60.875988 
	C378.690216,59.062641 382.496307,57.363590 386.728546,55.474289 
	C389.304565,70.139236 384.288757,84.919586 389.783844,99.152061 
	C386.501221,99.152061 382.714478,99.152061 378.485474,99.151672 
z"/>
<path fill="#F6F6F6" opacity="1.000000" stroke="none" 
	d="
M406.414429,97.680145 
	C407.448364,95.580948 408.839691,93.846375 408.900299,92.066505 
	C409.154907,84.587570 409.220520,77.087593 408.952423,69.609772 
	C408.707458,62.776749 405.902161,60.364628 399.051453,60.009804 
	C397.475922,59.928200 395.924622,59.379410 393.389038,58.837734 
	C396.258667,57.802250 398.150818,56.964336 400.125488,56.432880 
	C410.482971,53.645279 417.677704,58.970951 417.927338,69.698959 
	C418.082153,76.351753 417.767090,83.020210 418.074585,89.662582 
	C418.210907,92.607857 419.365234,95.506012 420.298309,99.441322 
	C415.916046,99.001999 411.037903,98.512970 406.414429,97.680145 
z"/>
<path fill="#F2F2F2" opacity="1.000000" stroke="none" 
	d="
M302.613525,70.267487 
	C305.053711,75.969124 307.262390,81.353561 309.626617,86.668823 
	C309.966431,87.432793 311.055939,87.863297 312.874634,89.295662 
	C312.240875,91.067139 311.256897,94.667847 309.665833,97.976639 
	C308.538269,100.321571 305.296692,99.582100 304.080597,96.722275 
	C300.568298,88.462791 297.290253,80.102104 293.686707,71.883560 
	C291.449829,66.781921 288.788422,61.866428 286.240051,56.710587 
	C290.372345,56.710587 294.926270,56.710587 299.718719,56.710587 
	C296.994598,61.775509 301.257782,65.511864 302.613525,70.267487 
z"/>
<path fill="#F4F4F4" opacity="1.000000" stroke="none" 
	d="
M107.517899,50.952385 
	C107.258263,52.802399 107.234642,54.723763 106.700432,56.490765 
	C103.406120,67.387268 99.845200,78.205795 96.726112,89.150909 
	C95.887886,92.092316 96.277687,95.383690 96.085686,98.839676 
	C93.114700,98.839676 89.866188,98.839676 85.831039,98.839676 
	C87.803238,80.795792 98.300278,66.537262 107.052612,51.216732 
	C107.430542,51.049587 107.517899,50.952385 107.517899,50.952385 
z"/>
<path fill="#0C0C0C" opacity="1.000000" stroke="none" 
	d="
M206.438690,72.996628 
	C207.336060,68.460098 208.704132,63.922348 209.550385,59.172607 
	C209.028564,58.960621 209.017197,59.057808 209.017197,59.057808 
	C209.017197,59.057808 208.948227,59.069405 209.308868,59.403954 
	C209.957458,59.539444 210.245377,59.340385 210.884064,59.345001 
	C213.866348,58.890278 216.497879,58.231888 219.466644,57.711533 
	C226.059128,60.435993 229.440918,65.482643 228.648605,70.962242 
	C231.754517,70.962242 234.869995,70.962242 237.985474,70.962250 
	C236.551514,71.639687 235.128891,72.874062 233.681732,72.903534 
	C224.760696,73.085190 215.834122,72.995117 206.438690,72.996628 
z"/>
<path fill="#0C0C0C" opacity="1.000000" stroke="none" 
	d="
M338.438721,72.996628 
	C337.713562,67.823563 339.081635,63.267223 343.622467,59.372665 
	C346.516846,58.557884 348.823151,58.065697 351.466644,57.711533 
	C358.059052,60.435959 361.440948,65.482765 360.648621,70.962242 
	C363.754517,70.962242 366.869995,70.962242 369.985474,70.962234 
	C368.551514,71.639671 367.128906,72.874054 365.681732,72.903519 
	C356.760712,73.085190 347.834137,72.995117 338.438721,72.996628 
z"/>
<path fill="#ECECEC" opacity="1.000000" stroke="none" 
	d="
M107.700867,50.653957 
	C107.517899,50.952385 107.430542,51.049587 107.366051,51.060123 
	C108.030151,49.908947 108.758751,48.747238 110.314285,46.267033 
	C100.621346,46.267033 92.269508,46.091194 83.938438,46.428360 
	C82.430267,46.489395 81.007256,48.654457 79.056618,50.246792 
	C79.691681,46.309937 80.233887,42.948704 80.796707,39.459656 
	C92.178566,39.459656 103.195335,39.459656 115.673332,39.459656 
	C112.688957,43.634174 110.286400,46.994854 107.700867,50.653957 
z"/>
<path fill="#090909" opacity="1.000000" stroke="none" 
	d="
M251.989899,70.023178 
	C252.867676,66.701477 253.745453,63.379780 254.306808,59.863037 
	C256.126740,58.481083 258.263092,57.294167 260.856323,56.432381 
	C262.520508,57.171364 263.704132,57.682491 264.939087,57.982430 
	C270.633057,59.365376 274.023102,63.836292 273.557220,70.003357 
	C266.056763,69.971481 259.023315,69.997330 251.989899,70.023178 
z"/>
<path fill="#EDEDED" opacity="1.000000" stroke="none" 
	d="
M274.024261,70.061089 
	C274.023102,63.836292 270.633057,59.365376 264.939087,57.982430 
	C263.704132,57.682491 262.520508,57.171364 261.219238,56.402927 
	C264.873138,56.321751 268.775421,56.025982 272.335632,56.991501 
	C278.977081,58.792671 282.743988,63.473606 283.538452,71.209908 
	C280.471527,71.209908 277.602112,71.209908 274.381470,70.868866 
	C274.030212,70.527832 274.024261,70.061089 274.024261,70.061089 
z"/>
<path fill="#F3F3F3" opacity="1.000000" stroke="none" 
	d="
M369.980377,70.574104 
	C366.869995,70.962242 363.754517,70.962242 360.648621,70.962242 
	C361.440948,65.482765 358.059052,60.435959 351.513855,57.463326 
	C351.159607,56.747505 351.095398,56.417919 351.031158,56.088333 
	C361.907837,55.738129 368.028168,60.292702 369.980377,70.574104 
z"/>
<path fill="#F3F3F3" opacity="1.000000" stroke="none" 
	d="
M237.980377,70.574104 
	C234.869995,70.962242 231.754517,70.962242 228.648605,70.962242 
	C229.440918,65.482643 226.059128,60.435993 219.513855,57.463326 
	C219.159622,56.747498 219.095398,56.417915 219.031189,56.088329 
	C229.907806,55.738144 236.028198,60.292755 237.980377,70.574104 
z"/>
<path fill="#ECECEC" opacity="1.000000" stroke="none" 
	d="
M152.703156,94.981590 
	C151.729935,90.380440 151.106506,85.981735 150.483063,81.583031 
	C150.972046,81.334419 151.461014,81.085808 151.949997,80.837196 
	C155.851501,89.872437 161.823532,96.503387 171.608780,99.015793 
	C164.822067,100.358780 158.875580,98.086639 152.703156,94.981590 
z"/>
<path fill="#E4E4E4" opacity="1.000000" stroke="none" 
	d="
M187.941513,41.226013 
	C189.447449,45.162781 190.596558,48.966026 191.745651,52.769272 
	C191.141479,53.175529 190.537323,53.581787 189.933151,53.988045 
	C185.519485,44.701260 178.476120,39.682499 167.690567,40.737297 
	C167.993561,39.930286 168.296539,39.123276 168.599533,38.316261 
	C174.927902,39.241673 181.256287,40.167080 187.941513,41.226013 
z"/>
<path fill="#CBCBCB" opacity="1.000000" stroke="none" 
	d="
M323.244202,63.390953 
	C322.432983,65.131020 321.765747,66.524780 321.098511,67.918541 
	C320.792114,67.860054 320.485748,67.801575 320.179352,67.743088 
	C320.179352,64.210770 320.179352,60.678455 320.179352,56.633736 
	C322.010681,56.633736 324.889618,56.633736 328.180481,56.633736 
	C326.426880,58.979622 324.907532,61.012131 323.244202,63.390953 
z"/>
<path fill="#BEBEBE" opacity="1.000000" stroke="none" 
	d="
M181.589676,96.025864 
	C182.225815,96.251228 182.478683,96.548096 182.981750,97.010094 
	C177.936340,100.244263 175.808533,100.602180 172.064743,98.887383 
	C175.245560,97.916611 178.225983,97.006996 181.589676,96.025864 
z"/>
<path fill="#D0D0D0" opacity="1.000000" stroke="none" 
	d="
M273.557220,70.003357 
	C274.024261,70.061089 274.030212,70.527832 274.016418,70.760818 
	C266.975708,71.083900 259.948792,71.174004 252.465515,71.151772 
	C251.998032,70.870209 251.986954,70.700989 251.982895,70.277473 
	C259.023315,69.997330 266.056763,69.971481 273.557220,70.003357 
z"/>
<path fill="#B9B9B9" opacity="1.000000" stroke="none" 
	d="
M350.632141,56.004009 
	C351.095398,56.417919 351.159607,56.747505 351.176636,57.325302 
	C348.823151,58.065697 346.516846,58.557884 343.831604,59.081253 
	C343.063721,59.000656 342.674835,58.888882 342.123596,58.506927 
	C344.718536,57.464390 347.475830,56.692039 350.632141,56.004009 
z"/>
<path fill="#B9B9B9" opacity="1.000000" stroke="none" 
	d="
M218.631607,56.004044 
	C219.095398,56.417915 219.159622,56.747498 219.176620,57.325291 
	C216.497879,58.231888 213.866348,58.890278 210.681854,59.152058 
	C210.064484,58.580761 210.000076,58.406078 209.935654,58.231388 
	C212.701111,57.460846 215.466568,56.690304 218.631607,56.004044 
z"/>
<path fill="#B9B9B9" opacity="1.000000" stroke="none" 
	d="
M208.665100,59.065544 
	C209.017197,59.057808 209.028564,58.960621 209.059296,58.923130 
	C208.582336,59.475048 208.074661,60.064461 207.179337,60.767746 
	C207.298798,60.278839 207.805908,59.676064 208.665100,59.065544 
z"/>
<path fill="#B9B9B9" opacity="1.000000" stroke="none" 
	d="
M340.638123,59.016319 
	C340.462158,59.576458 339.940826,60.184917 339.105713,60.837391 
	C339.292206,60.275814 339.792480,59.670223 340.638123,59.016319 
z"/>
<path fill="#F2F2F2" opacity="1.000000" stroke="none" 
	d="
M209.682220,58.190781 
	C210.000076,58.406078 210.064484,58.580761 210.331085,58.948387 
	C210.245377,59.340385 209.957458,59.539444 209.292328,59.373138 
	C209.086365,58.721905 209.257568,58.436039 209.682220,58.190781 
z"/>
</svg>